<?xml version="1.0" encoding="utf-8"?>
<!-- Generator: Adobe Illustrator 25.2.1, SVG Export Plug-In . SVG Version: 6.00 Build 0)  -->
<svg version="1.1"
	 id="svg8" sodipodi:docname="landing-pic.svg" xmlns:cc="http://creativecommons.org/ns#" xmlns:dc="http://purl.org/dc/elements/1.1/" xmlns:inkscape="http://www.inkscape.org/namespaces/inkscape" xmlns:rdf="http://www.w3.org/1999/02/22-rdf-syntax-ns#" xmlns:sodipodi="http://sodipodi.sourceforge.net/DTD/sodipodi-0.dtd" xmlns:svg="http://www.w3.org/2000/svg"
	 xmlns="http://www.w3.org/2000/svg" xmlns:xlink="http://www.w3.org/1999/xlink" x="0px" y="0px" viewBox="0 0 636.2 356.7"
	 style="enable-background:new 0 0 636.2 356.7;" xml:space="preserve">
<style type="text/css">
	.st0{fill:#EAFBF5;}
	.st1{fill:#C1EEE7;}
	.st2{font-family:'Arial-BoldMT';}
	.st3{font-size:22.6107px;}
	.st4{fill:#D7EEE6;}
	.st5{fill:#C5C5C5;}
	.st6{fill:#FFFFFF;}
	.st7{fill:#E2E2E2;}
	.st8{fill:#C6C6C6;}
	.st9{fill:none;stroke:#C5C5C5;stroke-width:0.75;stroke-miterlimit:11.3386;}
	.st10{fill:none;stroke:#000000;stroke-width:0.75;stroke-miterlimit:11.3386;stroke-opacity:0;}
	
		.st11{fill-rule:evenodd;clip-rule:evenodd;fill:#167E8B;stroke:#000000;stroke-width:0.75;stroke-miterlimit:11.3386;stroke-opacity:0;}
	
		.st12{fill-rule:evenodd;clip-rule:evenodd;fill:#E7B147;stroke:#000000;stroke-width:0.75;stroke-miterlimit:11.3386;stroke-opacity:0;}
	
		.st13{fill-rule:evenodd;clip-rule:evenodd;fill:#2752A0;stroke:#000000;stroke-width:0.75;stroke-miterlimit:11.3386;stroke-opacity:0;}
	.st14{fill:#E6B046;}
	.st15{fill:#167E8B;}
	.st16{fill:#2752A0;}
	.st17{fill:#0B3663;}
	.st18{fill:#E7B147;}
	.st19{fill:#FEAE71;}
	.st20{fill:#FA9350;}
	.st21{fill:#FEFEFE;}
	.st22{fill-rule:evenodd;clip-rule:evenodd;fill:#0B3663;stroke:#0B3663;stroke-width:0.75;stroke-miterlimit:11.3386;}
	.st23{fill-rule:evenodd;clip-rule:evenodd;fill:#FEAE71;stroke:#FFFFFF;stroke-width:0.75;stroke-miterlimit:11.3386;}
	.st24{fill-rule:evenodd;clip-rule:evenodd;fill:#0B3663;stroke:#FFFFFF;stroke-width:0.75;stroke-miterlimit:11.3386;}
	.st25{fill-rule:evenodd;clip-rule:evenodd;fill:#2752A0;stroke:#FFFFFF;stroke-width:0.75;stroke-miterlimit:11.3386;}
	.st26{fill-rule:evenodd;clip-rule:evenodd;fill:#167E8B;stroke:#FFFFFF;stroke-width:0.75;stroke-miterlimit:11.3386;}
	.st27{fill-rule:evenodd;clip-rule:evenodd;fill:#105F66;stroke:#105F66;stroke-width:0.75;stroke-miterlimit:11.3386;}
	
		.st28{fill-rule:evenodd;clip-rule:evenodd;fill:#0F5F67;stroke:#000000;stroke-width:0.75;stroke-miterlimit:11.3386;stroke-opacity:0;}
	.st29{fill-rule:evenodd;clip-rule:evenodd;fill:#E7B147;stroke:#FFFFFF;stroke-width:0.75;stroke-miterlimit:11.3386;}
	.st30{fill-rule:evenodd;clip-rule:evenodd;fill:#167E8B;stroke:#FFFFFF;stroke-width:1.3949;stroke-miterlimit:11.3386;}
	.st31{fill-rule:evenodd;clip-rule:evenodd;fill:#FFAF74;stroke:#FFFFFF;stroke-width:0.75;stroke-miterlimit:11.3386;}
	.st32{fill-rule:evenodd;clip-rule:evenodd;fill:#FEAE73;stroke:#FFFFFF;stroke-width:0.75;stroke-miterlimit:11.3386;}
	.st33{fill-rule:evenodd;clip-rule:evenodd;fill:#2B3968;stroke:#FFFFFF;stroke-width:0.75;stroke-miterlimit:11.3386;}
	.st34{fill-rule:evenodd;clip-rule:evenodd;fill:#FB9552;stroke:#FB9552;stroke-width:0.75;stroke-miterlimit:11.3386;}
	.st35{fill-rule:evenodd;clip-rule:evenodd;fill:#0F5F67;stroke:#0F5F67;stroke-width:0.75;stroke-miterlimit:11.3386;}
	
		.st36{fill-rule:evenodd;clip-rule:evenodd;fill:#1F3765;stroke:#1F3765;stroke-width:0.7512;stroke-linecap:square;stroke-miterlimit:11.3386;}
</style>
<sodipodi:namedview  bordercolor="#666666" borderopacity="1.0" fit-margin-bottom="0" fit-margin-left="0" fit-margin-right="0" fit-margin-top="0" id="base" inkscape:current-layer="layer2" inkscape:cx="496.56029" inkscape:cy="403.91615" inkscape:document-rotation="0" inkscape:document-units="mm" inkscape:pageopacity="0.0" inkscape:pageshadow="2" inkscape:snap-global="false" inkscape:window-height="1377" inkscape:window-maximized="1" inkscape:window-width="2560" inkscape:window-x="1592" inkscape:window-y="-8" inkscape:zoom="0.49497475" pagecolor="#ffffff" showgrid="false" showguides="false">
	</sodipodi:namedview>
<g id="layer1" transform="translate(26.458338,-5.2916718)" inkscape:groupmode="layer" inkscape:label="Layer 1">
	<g id="g1102" transform="translate(0,0.53549412)">
		<path id="path979" class="st0" d="M131.7,361.3l-135.2-0.4l-3-3.7c-12.5-15.2-20.1-37.4-20-58.5c0.1-23.5,12-62,23-74.5
			c1.9-2.2,9.3-8.5,16.4-14.2c7.1-5.7,17.4-14.6,22.9-20c8.9-8.6,10.6-10.9,15.2-20.4c2.9-5.9,6.5-15.1,8.1-20.4
			c2.8-9.2,2.9-10.8,3.1-37c0.2-20.9,0.7-29.3,2.1-35.9c5.4-25.4,20.5-46.4,40.2-56.1c12.7-6.2,22.1-8.8,35.5-9.5
			c15.6-0.8,28.8,1.6,54.5,9.9c33.4,10.8,49.3,13,68.7,9.7c4.9-0.9,22.5-5.4,39-10.1c51.1-14.5,64.9-16.9,84.6-15.1
			c20.6,1.9,32.6,6.1,50.3,17.9c14,9.2,31.1,26.3,39.1,39.2c14.1,22.5,29,44.8,34.8,52c4,5,11.9,12.3,21.9,20.3
			c31.8,25.5,39.1,33.1,50.4,52.8c15.8,27.3,20.7,44.3,25.7,88.8c1.3,11.5,0,19.5-6,36.8c-5.9,16.8-11.1,26.2-21,37.6l-8.9,10.3
			l-110.9,0c-61,0-129.9,0.2-153.2,0.4C286,361.5,206.1,361.5,131.7,361.3L131.7,361.3z"/>
		<text transform="matrix(1 0 0 1 241.1857 109.9127)" class="st1 st2 st3">OSS</text>
		<text transform="matrix(6.123234e-17 -1 1 6.123234e-17 108.7071 184.8463)" class="st1 st2 st3">committee</text>
		<text transform="matrix(0.7071 -0.7071 0.7071 0.7071 531.5417 301.79)" class="st1 st2 st3">bylaws</text>
		<text transform="matrix(6.123234e-17 -1 1 6.123234e-17 483.631 179.0338)" class="st1 st2 st3">member</text>
		<text transform="matrix(0.7071 -0.7071 0.7071 0.7071 7.472 282.9232)" class="st1 st2 st3">project</text>
		<text transform="matrix(1 0 0 1 474.8653 214.7057)" class="st1 st2 st3">umbrella</text>
		<text transform="matrix(0.7071 -0.7071 0.7071 0.7071 368.0267 155.4555)" class="st1 st2 st3">organization</text>
		<text transform="matrix(6.123234e-17 -1 1 6.123234e-17 450.7227 348.5045)" class="st1 st2 st3">repository</text>
		<text transform="matrix(1 0 0 1 184.0382 57.5475)" class="st1 st2 st3">plenary</text>
		<text transform="matrix(1 0 0 1 15.3702 339.8541)" class="st1 st2 st3">meeting</text>
		<text transform="matrix(1 0 0 1 302.8028 73.5631)" class="st1 st2 st3">decision</text>
		<text transform="matrix(1 0 0 1 295.7354 344.4879)" class="st1 st2 st3">developer</text>
	</g>
</g>
<g id="layer3" inkscape:groupmode="layer" inkscape:label="pantalla">
	<g id="g1129" transform="translate(0,0.30183)">
		<path id="path938" class="st0" d="M201.9,267.3c-0.1-0.4-8-30.2-17.4-66.3c-9.5-36.1-17.4-66.4-17.7-67.4l-0.5-1.8l41.6,0.4
			c162.4,1.5,190.4,1.8,190.8,2.3c0.4,0.5,34.9,131.9,34.9,133C433.6,268.3,202.2,268.2,201.9,267.3L201.9,267.3z"/>
		<path id="path940" class="st4" d="M324.8,277.1c-39-0.2-84.3-0.4-100.5-0.4l-29.5-0.1l-18.9-74.3c-10.4-40.9-19-74.6-19.2-75
			c-0.2-0.6,20.3-0.7,125.1-0.7h125.4l0.6,2.5c1.7,6.9,37.6,146.8,37.8,147.6C446,277.8,457.6,277.7,324.8,277.1L324.8,277.1z
			 M435.1,268.8c0.1-0.1-30.9-119.7-35.1-135l-0.3-1.1l-47.8-0.4c-26.3-0.2-79.1-0.7-117.4-1.1c-38.3-0.4-69.7-0.6-69.8-0.6
			c-0.1,0,8.1,31.2,18.1,69.4c10,38.1,18.2,69.4,18.2,69.5C201.1,269.8,434.8,269.1,435.1,268.8L435.1,268.8z"/>
		<path id="path942" class="st5" d="M267.1,317.8c-38.1-0.2-69.3-0.4-69.4-0.6c-0.1-0.1-10.1-40.6-22-90c-12-49.4-22.3-91.9-23-94.6
			l-1.2-4.9l1.9-0.8l1.9-0.8l24.1,94.7l24.1,94.7l125,0l125,0l-1.3,1.3l-1.3,1.3l-57.4-0.1C362.1,318.2,305.2,318,267.1,317.8
			L267.1,317.8z"/>
		<path id="path944" class="st6" d="M199.9,296.4c-2.6-10.1-4.6-18.4-4.6-18.5c0.1-0.1,42.9,0.1,95.2,0.4
			c52.3,0.3,108.7,0.5,125.4,0.5l30.3,0l4.5,17.5c2.5,9.6,4.3,17.6,4.1,17.8c-0.2,0.2-56.5,0.4-125.3,0.6l-124.9,0.2L199.9,296.4z"
			/>
		<path id="path946" class="st7" d="M274.7,341.5c0.2-2.2,0.3-4.9,0.3-5.9c0-1.1,0.2-2.2,0.5-2.6c0.4-0.6,49.3-11.5,49.8-11.1
			c0.1,0.1-0.1,3.4-0.5,7.3l-0.7,7.2l-9.1,1.7c-5,0.9-16.2,3-24.8,4.6l-15.7,2.9L274.7,341.5z"/>
		<path id="path948" class="st8" d="M273.3,354.1l-2.8-2.3l-0.2-4c-0.2-4.2,1.9-26.8,2.5-27.4c0.5-0.6,53.1-1.2,53.1-0.6
			c0,0.4-9.4,2.5-49.6,11l-2.2,0.5l-0.5,7.6c-0.3,4.2-0.5,7.7-0.3,7.8c0.1,0.1,11.6-1.9,25.5-4.4c13.9-2.6,25.5-4.7,25.7-4.6
			c0.2,0,0.2,2.8,0.1,6.2c-0.3,6-0.3,6.2,1,7.6c2.2,2.4,3.8,2.9,9.3,2.9c4.8,0,5.1,0.1,5.1,1.1c0,1.1-0.4,1.1-31.9,1.1h-31.9
			L273.3,354.1z"/>
		<path id="path1020" class="st9" d="M188.3,160.5l107,0.9"/>
		<path id="path1022" class="st9" d="M192.1,176.5l90.4,1"/>
		<path id="path1024" class="st9" d="M190.1,168.5l107,0.9"/>
		<path id="path1028" class="st9" d="M194.7,184.5l89.6,1"/>
		<path id="path1030" class="st9" d="M196.9,192.5l107,0.9"/>
		<path id="path1032" class="st9" d="M200.8,208.4l89.6,1"/>
		<path id="path1034" class="st9" d="M198.7,200.5l89.3,1"/>
		<path id="path1036" class="st9" d="M203.3,216.4l72.4,1"/>
		<path id="path1038" class="st9" d="M205.6,224.4l72.2,1"/>
		<path id="path1040" class="st9" d="M209.4,240.4l107,0.9"/>
		<path id="path1042" class="st9" d="M207.4,232.4l107,0.9"/>
		<path id="path1044" class="st9" d="M212,248.4l107,0.9"/>
		<path id="path1072" class="st10" d="M337,220l80.1,0.9"/>
		<path id="path1074" sodipodi:nodetypes="ccccc" class="st11" d="M342,220L332,181.3h9.3l10,38.8L342,220z"/>
		<path id="path1076" class="st12" d="M351.3,220.1l-11.6-44.7h9.3l11.5,44.8L351.3,220.1z"/>
		<path id="path1078" sodipodi:nodetypes="ccccc" class="st13" d="M360.5,220.2l-6.1-23.7h9.3l6,23.8L360.5,220.2z"/>
		<path id="path1080" class="st11" d="M384.5,220.5l-11.6-44.7h9.3l11.5,44.8L384.5,220.5z"/>
		<path id="path1082" sodipodi:nodetypes="ccccc" class="st12" d="M393.6,220.6l-6.5-25.2h9.3l6.4,25.3L393.6,220.6z"/>
		<path id="path1084" sodipodi:nodetypes="ccccc" class="st13" d="M402.8,220.7l-9.4-36.9h9.3l9.3,37L402.8,220.7z"/>
	</g>
</g>
<g id="layer2" inkscape:groupmode="layer" inkscape:label="c1">
	<g id="g953" transform="translate(0,0.45948782)">
		<path id="path924" class="st14" d="M432.4,203.9c-8.5-0.5-15.8-3.7-21.6-9.3c-5.2-5-8.4-11.3-9.3-18.3c-0.2-1.8-0.2-5.8,0.1-7.6
			c1-6.4,3.7-12,8.2-16.5c5.2-5.3,11.7-8.5,19.5-9.6c1.9-0.2,6.3-0.2,8.2,0.1c5.9,0.8,11.3,3,15.7,6.3c3.1,2.3,5.6,4.9,7.6,8
			c3.2,4.8,4.8,9.9,5.1,15.5c0.6,15.6-11.1,28.9-27.3,31.1C436.9,203.8,433.6,203.9,432.4,203.9L432.4,203.9z M438.3,200.3
			c3-0.5,5.7-1.3,8.3-2.5c3.1-1.5,5.1-2.9,7.6-5.3c10.9-10.6,10.7-27.6-0.3-38.4c-3.7-3.6-8.3-6.1-13.3-7.4
			c-16.1-4-32.1,5.5-35.3,20.9c-0.7,3.4-0.6,7.8,0.2,11.2c0.9,3.6,2.7,7.5,5,10.4c4.2,5.4,10.5,9.3,17.2,10.7c1.1,0.2,1.8,0.3,4,0.6
			C432.7,200.6,437,200.5,438.3,200.3L438.3,200.3z"/>
		<path id="path914" class="st15" d="M541.8,194.7c-6.3-0.9-23.9-3.5-39.1-5.7c-15.3-2.2-27.8-4.1-27.9-4.2
			c-0.1-0.1,1.3-9.5,1.5-9.6c0.1-0.1,3.7,0.4,8.2,1.1c4.4,0.7,22,3.2,39,5.8c17,2.5,30.9,4.6,31,4.6c0.1,0-1.2,9.7-1.2,9.7
			C553.2,196.4,548,195.6,541.8,194.7z"/>
		<path id="path866" class="st16" d="M505,336.2c-1.1-7.3-2.2-14.2-2.4-15.3c-4.2-18.6-6.8-35.6-7.2-47l-0.1-3.9l2.4,1.2
			c5.9,2.9,10,3.6,15.6,2.3c2.5-0.5,6.9-2,9.4-3c0.9-0.4,1.6-0.7,1.6-0.7c0,0,0.3,0.6,0.6,1.3c0.3,0.7,0.8,1.8,1.2,2.4
			c0.8,1.4,1.1,3.4,1.8,9.8c0.5,4.6,1.4,14.8,1.4,15.9c0,0.5,0.1,0.7,0.5,0.9c0.3,0.2,3,1.1,6.1,2.1c3.1,1,6.4,2.2,7.3,2.7
			c4,2,7.8,5.2,10.9,9.3l0.8,1v2.3c0,1.3-0.1,2.3-0.2,2.3c-0.1,0-4.1-1-8.9-2.2c-16.9-4.2-23.4-6.3-25.6-8.4
			c-1.5-1.3-3.6-4.9-4.3-7.4c-0.4-1.4-0.6-1.7-1.4-1.5c-1,0.2-1.2,2.3-0.4,4.5c0.6,1.7,0.8,2.9,1.1,6.8c0.8,8.4,1,19.3,0.4,23.3
			c-0.6,4.4-1.4,8.3-2.7,12.4l-0.7,2.1l-2.6,0l-2.6,0L505,336.2z"/>
		<path id="path868" class="st17" d="M500.1,355.2c-0.5-0.5-0.2-0.7,1.7-1.1c2.7-0.6,3.3-0.9,4.1-2.3c0.7-1.1,0.7-1.1,1.7-1.2
			c0.6-0.1,1.9-0.1,3-0.1l2,0.1l0.4,0.8c0.3,0.6,0.4,1.1,0.3,2.4l-0.1,1.6h-6.5C502,355.4,500.2,355.4,500.1,355.2L500.1,355.2z"/>
		<path id="path870" class="st17" d="M562.9,324.7c-0.3-0.1-0.9-0.9-1.5-1.7c-0.5-0.8-1.2-1.8-1.4-2.1c-0.5-0.7-1.7-1.2-3.1-1.4
			l-1.1-0.1v-2.2v-2.2l1.4-1c0.7-0.5,1.5-1,1.6-1c0.1,0,1.2,1.9,2.4,4.1c1.2,2.3,2.6,4.9,3.1,6l1,1.9l-1,0
			C563.8,324.9,563.2,324.8,562.9,324.7L562.9,324.7z"/>
		<path id="path872" class="st17" d="M512.9,215.3c0-2.3,0-2.3,0.6-3.1c1.9-2.5,2-2.7,1.9-4.4c-0.1-1.1-0.3-1.3-1.2-1.2
			c-1.2,0.2-2.2-0.4-3.9-1.9c-1.2-1.1-1.5-1.6-2.4-3.4c-1.6-3.2-1.5-3.1-2.8-2.2c-1,0.7-2.2,2.6-2.8,4.3c-0.4,1.2-0.4,1.7-0.4,4.2
			c0,2.4,0.1,3.1,0.5,4.4c0.5,1.8,1.1,2.6,2,2.8c0.6,0.1,0.7,0.2,0.7,1v0.8l-0.6-0.1c-1-0.2-4.8-1.2-5.3-1.4
			c-0.8-0.3-0.9-1.3-0.2-2.4c1.2-1.9,1.2-2,1.1-3.2c-0.1-0.8-0.3-1.5-0.7-2.2c-0.7-1.4-0.9-2.3-0.6-4.2c0.2-1.7,0.8-3,1.9-4.2
			c1-1,3.7-2.9,5.5-3.8c2.3-1.1,5.1-1.3,7.2-0.6c1.5,0.5,4.2,1.9,5.1,2.6c0.9,0.7,1.7,2.5,2.9,5.9c1,3.1,1.6,4.2,2.4,5
			c0.3,0.3,1.8,1.4,3.2,2.3c1.4,0.9,2.8,2,3.2,2.4l0.6,0.6l-1.8,0.7c-1,0.4-3.5,1.3-5.5,2.1l-3.7,1.3l-3.4,0.1l-3.4,0.1V215.3z"/>
		<path id="path874" class="st18" d="M504.4,272.8c-1.8-0.3-10.1-4.2-10.5-4.9c-0.6-1.1,0-5.3,1.5-9.9c1.3-4.1,1.6-7,1.2-10.2
			c-0.3-1.8-0.8-3.6-2.9-9.5c-0.8-2.4-0.9-2.6-0.9-4.5c0-1.3,0.2-3,0.5-4.8c0.3-1.5,0.4-3,0.4-3.3c-0.1-0.4-1.5-2.2-5.1-6.2
			c-2.7-3.1-5.4-6.1-6-6.7c-1.2-1.3-2.2-3.3-2.6-5.3c-0.3-1.2-0.3-2.8-0.3-9.3c0-4.3,0-7.9,0.1-8c0.1,0,0.9,0,1.9,0l1.8,0.1l1.5,6.5
			c1.5,6.7,1.7,7.4,3.2,9.7c1.5,2.3,5.4,6,8.5,8.1c1.5,1,3.7,1.8,6.3,2.3c0.7,0.1,1.3,0.3,1.4,0.3c0.1,0.1,0,0.5-0.1,1
			c-0.4,1.5-0.4,2.1,0.3,2.8c0.3,0.3,0.9,0.6,1.3,0.7c0.8,0.2,3.9-0.2,4.5-0.6c0.6-0.3,1.8-1.6,2.2-2.4c0.3-0.6,0.3-0.6,1.5-0.5
			c0.6,0.1,2.3,0,3.6-0.1c2.3-0.2,2.7-0.3,6.4-1.6c6.2-2.2,8.6-3.2,9.5-4.1c0.5-0.4,1.2-1.6,5.8-9.8c1.8-3.2,3.4-5.9,3.4-6
			c0,0,0.7,0.1,1.5,0.4l1.4,0.5l-2.4,8.7c-2,7.2-2.5,9-3.2,10.3c-0.5,0.9-1.1,1.8-1.4,2c-0.3,0.3-3.7,2.3-7.5,4.5s-7.2,4.3-7.5,4.6
			c-1,1-1.6,2.3-2.1,5.1c-0.4,2.6-1.4,5.6-2.6,8.5c-1.5,3.4-3,10.2-3,13.4c0,2,0.6,4,1.7,5.9c1,1.7,2,2.4,4.1,3.1
			c1,0.3,2,0.7,2.1,0.8c0.4,0.5,0.8,2.5,0.6,2.9c-0.4,0.7-5,2.8-9.7,4.3c-2.2,0.7-2.2,0.7-5.8,0.8C507,272.9,505,272.9,504.4,272.8
			L504.4,272.8z"/>
		<path id="path882" class="st19" d="M505.7,220.8c-0.8-0.2-1-1.1-0.5-2.3c0.9-2.3,1-3.8,0.4-4.3c-0.1-0.1-0.5-0.3-0.9-0.3
			c-0.8-0.1-1-0.5-1.6-2.7c-0.4-1.5-0.4-5.6,0-7.1c0.5-1.8,2.1-4.3,2.8-4.3c0.1,0,0.5,0.6,0.8,1.3c1.6,3.7,4.6,6.5,7,6.5h0.9l-0.1,1
			c-0.1,0.8-0.2,1.2-0.7,1.8c-1.8,2.2-1.8,2.1-1.9,5.1c-0.1,2.9-0.2,3.3-1.4,4.4c-0.3,0.3-0.9,0.7-1.2,0.8
			C508.5,220.9,506.4,221,505.7,220.8L505.7,220.8z"/>
		<path id="path886" class="st20" d="M505.9,215.4c0-0.3,0-0.5,0.1-0.5c0,0,4.3-0.8,4.4-0.8c0,0-0.1,0.1-0.2,0.3
			c-0.4,0.6-1.4,1.1-2.3,1.4c-0.2,0.1-0.8,0.1-1.2,0.2l-0.8,0L505.9,215.4z"/>
		<path id="path890" class="st21" d="M506,213c-0.5-0.1-1-0.4-1.4-0.9l-0.1-0.1l0.1-0.1c0.1-0.1,0.2-0.1,0.2-0.2l0.1-0.1l0.2,0.1
			c0.4,0.1,0.9,0.2,1.3,0.3c0.1,0,0.4,0,0.6,0c0.4,0,0.5,0,0.9-0.1c0.2,0,0.4,0,0.4,0c0,0-0.1,0.1-0.2,0.2c-0.6,0.6-1.2,0.9-1.7,1
			C506.3,213,506.1,213,506,213L506,213z"/>
		<path id="path892" class="st21" d="M479.9,188.2c-0.2-0.3-0.3-0.8-0.3-1.1c0-0.5,0.2-0.6,1.4-0.6c1,0,1.5-0.1,1.6-0.4
			c0.3-0.7,0.6-0.4,0.5,0.5c-0.3,1.5-0.8,2.1-2,2.1C480.4,188.7,480.1,188.6,479.9,188.2z"/>
		<path id="path894" class="st21" d="M479.9,188.4c-0.1-0.3-0.3-0.9-0.3-1.3l-0.1-0.7l1.4,0.1l1.4,0.1l0.2-0.4
			c0.1-0.3,0.3-0.4,0.5-0.4c0.3,0,0.4,0,0.2,0.3c-0.1,0.1-0.1,0.5-0.1,0.9c0,0.5-0.1,0.7-0.4,1c-0.2,0.2-0.4,0.5-0.4,0.7
			c0,0.3,0,0.3-1.1,0.3h-1.1L479.9,188.4z"/>
		<path id="path896" class="st19" d="M480,188.9c-0.1-0.1-0.3-0.5-0.3-0.7c-0.1-0.3-0.2-0.6-0.2-0.9c0-0.3,0-0.8,0-0.8c0,0,0,0,0,0
			c0,0,0,0,0.1,0c0.4,0,2.3,0.2,2.4,0.2c0.3,0,0.3,0,0.4-0.4l0.1-0.3l0.2,0c0.2,0,0.7,0,0.7,0c0,0,0,0.1-0.1,0.2
			c-0.2,0.3-0.2,0.4-0.2,0.8c0,0.1,0,0.4,0,0.5c0,0.4,0,0.4-0.2,0.5c-0.2,0.1-0.4,0.3-0.5,0.4c-0.1,0.1-0.1,0.4-0.1,0.6v0.1l-0.7,0
			c-0.4,0-0.9,0-1.1,0L480,188.9L480,188.9z"/>
		<path id="path898" class="st19" d="M544.2,197c-1-0.2-1.1-0.3-1.3-0.8c-0.2-0.5-0.2-1-0.1-1.6l0.1-0.4l0.4,0.5
			c0.6,0.7,1.5,1.3,2.3,1.4c0.4,0,0.6,0.1,0.6,0.1c0,0-0.1,0.3-0.3,0.6C545.5,197.2,545.5,197.3,544.2,197L544.2,197z"/>
		<path id="path910" class="st1" d="M472.4,186.4c0-0.3,0.5-3.6,1.2-7.3c0.7-3.7,1.2-6.8,1.2-6.9c0-0.1,0.3-0.1,0.6,0
			c0.8,0.1,0.8,0.4-0.6,8.3c-1.1,6.2-1.2,6.4-1.8,6.4C472.6,186.9,472.4,186.7,472.4,186.4L472.4,186.4z"/>
		<path id="path920" class="st15" d="M469.4,182.8c-2.6-0.4-2.8-0.5-2.7-0.5c0,0,0.3-2,0.7-4.3c0.4-2.3,0.7-4.3,0.7-4.3
			c0,0,1.2,0.2,2.7,0.5l2.7,0.5l0,0.1c0,0.1-1.2,8.2-1.2,8.3c0,0.1,0,0.1,0,0.1C472.2,183.3,470.9,183.1,469.4,182.8L469.4,182.8z"
			/>
	</g>
	<path id="path901" class="st22" d="M245.1,158.6c-0.1,2,0.1,2.7,0.6,3.2c0.4,0.4,2.6,0.6,3.8,0.3c1.2-0.3,2.9-0.9,6.2-0.8
		c3.2,0.1,4.5-0.5,5.4-0.9c0.9-0.4,3.1-1.8,1.2-2.2c-1.9-0.4-3.9-0.6-3.9-0.6S256,160.7,245.1,158.6L245.1,158.6z"/>
	<path id="path897" class="st22" d="M198.8,162.7c-0.9,0.6-2.2,1.3-2.3,2.7c0,1.4,1.8,3.4,3.7,4.9c1.8,1.6,2.8,4.3,4.5,5.6
		c1.7,1.4,4.4,3.7,4.9,2.7c0.6-0.9,0.9-1.6,0.2-2.9c-0.7-1.3-0.9-1.8-0.9-1.8s-3.4-0.2-6.2-4.5C200,165,198.8,162.7,198.8,162.7
		L198.8,162.7z"/>
	<path id="path899" class="st23" d="M199.3,162.7c4.1-0.4,4.9-6.4,4.9-6.4l1.2-4.1l5.3,1.3c0,0-3.9,13.3-3.4,15.9
		c0.6,2.6,1,4,1.5,4.4C209.3,174.1,201.1,175,199.3,162.7z"/>
	<path id="path893" class="st24" d="M161.3,85.1c0,0-2.1-0.5-3.8-6c-1.7-5.5,2.4-13.1,4.4-14.5c2-1.5,5.3-4.5,5.5-6.8
		c0.2-2.3-1.2-8.8-0.3-12.5c0.9-3.7,3.2-10.2,10-10.5c6.8-0.2,8.2-1.1,11.7,2.7c3.5,3.8,10.7,15.3,11,23
		C200,68.2,161.3,85.1,161.3,85.1L161.3,85.1z"/>
	<path id="path873" class="st25" d="M210.1,120.6c0,0-4.6,11.2-5.2,20.8c-0.7,9.5-1.5,13.9-1.5,13.9s1.2,1.2,3.2,1.7
		c2,0.5,4.3,0.3,4.3,0.3l13-35.4l-10.3-9L210.1,120.6z"/>
	<path id="path875" class="st26" d="M176.3,62.1c-5.5,0.5-8,1.6-8,1.6s-3.6,1.1-4.2,4.4c-0.5,3.3-2.4,8.6-2.8,15
		c-0.4,6.4-0.5,9.5,0.9,10.6c1.5,1.1,5.9,0.7,5.9,0.7s-0.3,5.5,1.1,6.7c1.3,1.2,4.2,5.1,4.2,5.1L207,105l-2-32.3
		c0,0-5.1-4.3-9.1-6.2c-4-1.9-10.6-3.9-10.6-3.9s0.1,1.7-2.5,2C180.1,65,176.3,62.1,176.3,62.1L176.3,62.1z"/>
	<path id="path877" class="st27" d="M168.4,93.9c0,0,7.2,0.6,13.5-1.3c6.3-1.9,6.5-2,6.5-2s-8,5.5-12.9,6.2
		c-4.9,0.7-7.2,0.6-7.2,0.6L168.4,93.9z"/>
	<path id="path879" class="st28" d="M172.9,78.7l-0.3,4.9c0,0,3,2.2,7.7,1.9c4.7-0.3,4.7-0.1,4.7-0.1S175.3,84.4,172.9,78.7
		L172.9,78.7z"/>
	<path id="path891" class="st23" d="M176.2,61.9l0.3-7.4c0,0-1.9-2.4-1.6-3.5s0.9-1.3,1.7-1.1c0.8,0.2,3.4,0.5,5.3-2.7
		c1.9-3.2,2.9-5.4,2.9-5.4s4.3,2.3,4.2,8c0,5.7-0.8,7.1-1.4,7.6c-0.6,0.5-2.9,0.4-2.9,0.4l0.4,4.8C185.1,62.6,185.3,70.7,176.2,61.9
		L176.2,61.9z"/>
	<path id="path903" sodipodi:nodetypes="cscscscc" class="st23" d="M241,151.3c0,0,3.2,2.5,3.6,3.9c0.3,1.5,0,3,0,3s5.4,1.5,7.5,1.2
		c2.1-0.3,6.2-2.1,6.2-2.1s-7.5-1.2-12.1-7.7C241.7,143.3,241,151.3,241,151.3L241,151.3z"/>
	<path id="path871" class="st25" d="M169.2,102.4c-6,14.7-0.5,24.4-0.5,24.4l22.5,0.1c0,0,11.5-0.4,16.6-5c5.1-4.6,6.7-1.3,6.7-1.3
		s3.1,8.6,5.4,11.1c2.3,2.5,15,15.5,17,17.1c2,1.6,5,4.4,5,4.4s6.6,1.1,7.1-2.4c0.5-3.5-29.9-55.4-37-54
		C204.8,98.4,193.3,105.3,169.2,102.4L169.2,102.4z"/>
	<path id="path895" class="st29" d="M192.3,60.8v43.4h54.1V69.1h-30.4c0,0-2.8,0.8-4-1.5c-1.1-2.3-2.7-6.7-5.3-6.8
		C204.3,60.7,192.3,60.8,192.3,60.8L192.3,60.8z"/>
	<path id="path881" class="st23" d="M189.3,85.9l0.5,4c0,0,0.6-0.4,1.4-0.1c0.8,0.3,2.2,1.4,4.1,0.5c1.9-0.9,3.2-2.6,3.2-3
		c0-0.4,0.1,0.2,0-0.4c-0.1-0.6-2-0.5-2-0.5s-2.7,0.5-3.2-0.1c-0.5-0.6-0.4-3.8-0.4-3.8s-0.3,1.6-1.5,2.4
		C190.1,85.7,189.3,85.9,189.3,85.9L189.3,85.9z"/>
	<path id="path887" class="st23" d="M217.3,69.4c0,1.9,2.5,2,3,1.8c0.5-0.2,2.3-0.8,2-2.2c-0.3-1.5-0.2-1.2-0.7-1.6
		c-0.5-0.4-1.5-0.5-2.1-0.2c-0.6,0.2-1.5,0.6-1.7,1.1C217.4,68.8,217.3,69.4,217.3,69.4L217.3,69.4z"/>
	<path id="path935" class="st21" d="M185.2,55.2c0.5-0.1,1-0.4,1.4-0.9l0.1-0.1l-0.1-0.1c-0.1-0.1-0.2-0.1-0.2-0.2l-0.1-0.1
		l-0.2,0.1c-0.4,0.1-0.9,0.2-1.3,0.3c-0.1,0-0.4,0-0.6,0c-0.4,0-0.5,0-0.9-0.1c-0.2,0-0.4,0-0.4,0c0,0,0.1,0.1,0.2,0.2
		c0.6,0.6,1.2,0.9,1.7,1C184.9,55.2,185,55.2,185.2,55.2L185.2,55.2z"/>
	<path id="path955" class="st30" d="M134,275.4v80.8h100.7v-65.4h-56.5c0,0-5.3,1.4-7.4-2.8c-2.1-4.2-5.1-12.5-9.9-12.6
		C156.2,275.2,134,275.4,134,275.4L134,275.4z"/>
	<path id="path900" class="st24" d="M62.7,349.7c-2.8,0-5.8-2.5-5.8-2.5l0.1,2.5c0,0-2,1.9-2.1,3.3c-0.1,1.4,0.3,3.2,0.9,3.2
		c0.7,0,14.9,0.1,14.9,0.1s0-1.6-1.1-2c-1.1-0.5-3.9-0.3-4.6-1.1c-0.7-0.9-1.8-1.9-1.9-2.4C62.9,350.3,62.7,349.7,62.7,349.7
		L62.7,349.7z"/>
	<path id="path902" class="st24" d="M122.2,349c0,0-3.5,0.2-4.2,0.1c-0.8-0.1-2.2-1.2-2.2-1.2s1.7,1.5,1.1,2.4
		c-0.6,0.9-1.6,1.5-1.7,3c0,1.5,0,2.9,0,2.9l15.2,0.2c0,0,0.2-1.2-0.7-1.8c-0.9-0.6-4.3-1-4.8-1.3S122.9,351.3,122.2,349L122.2,349z
		"/>
	<path id="path904" class="st25" d="M75.6,254.6c-6,7.4-6,15-6,15s-3.3,31.3-3.1,34.5c0.2,3.2,0.2,8,0.2,8s-5.6,4.5-6.9,10.1
		c-1.3,5.7-2.8,18.6-2.4,22.1c0.5,3.5,0.7,3.7,0.7,3.7l4.5,1.6l11.2-29.7c0,0,2.7-2,5.1-8.2c2.5-6.3,9.3-24.1,9.3-24.1l16.2,28.3
		c0,0-0.3,9,0.8,12.5c1,3.5,4.9,12.2,7.4,15.2c2.5,3,3.5,4.5,3.5,4.5l2.1,1l4.3-0.5l-6.6-28.5c0,0,1.1-5.3,0.4-8.5
		c-0.8-3.2-3.8-18.4-4.5-20.5c-0.8-2.1-7-23.4-7-23.4S79.1,267.4,75.6,254.6L75.6,254.6z"/>
	<path id="path906" sodipodi:nodetypes="cscscscssscscsc" class="st26" d="M75.8,254.8c0,0,31.1-27.9,42.1-27.4l11.1,0.6
		c0,0,1.2,6.1,3.3,7.8c2.1,1.7,3.9-0.2,3.9-0.2s1.8,4.8,1.8,6.6v3.5c0,0-1.2,3.5-4,4c-2.7,0.5-3.7,3.6-5.3,4.2
		c-1.6,0.6-9.8,4-13.3,4.5c-3.5,0.6-3.2,0.8-3.2,0.8s-1.7,3.7-3.2,4.8c-1.4,1.1-4.7,3.8-4.7,3.8S79.1,270.5,75.8,254.8L75.8,254.8z"
		/>
	<path id="path908" class="st31" d="M114.5,247.9c0,0,7.4,1.1,9.9,0.1c2.6-1,3.1-1.5,3.1-1.5l-1.3,19.5c0,0,6.7,18,7.6,21
		c0.9,3,1.2,5.1,1.9,6c0.7,0.9,2,2,2.4,2.9c0.4,0.9,0.8,1.6,0.5,1.9c-0.4,0.3-1.4-0.7-1.9-1.1c-0.4-0.3-0.7-0.6-0.9-0.5
		c-0.2,0.1-0.5,0.7-0.1,1.5c0.4,0.8,0.3,5.8,0.3,5.8s-4.6-4.1-4.6-4.7c0-0.7,0.4-5.6,0-6.5c-0.4-0.9-11.9-15.8-12.9-20.3
		C117.6,267.5,114.5,247.9,114.5,247.9L114.5,247.9z"/>
	<path id="path911" class="st31" d="M130.5,251.9c0,0,3.5-2.7,5-3.8c1.5-1.1,2.7-2.5,2.7-2.5s4.1,16.5,7.6,19.6
		c3.5,3.1,13.7,10,13.7,10l-9.7,0.1l-6.4-3.2c0,0-2.1-0.9-3.1-1.9C139.4,269.1,130.5,251.9,130.5,251.9L130.5,251.9z"/>
	<path id="path913" class="st32" d="M161.8,275.9c0,0,3.3-0.5,4.1,0.7c0.7,1.2,0.9,3.3,0.9,3.3l-2.9,0.2c0,0-0.9,0-1.9-1.1
		C160.9,278,161.8,275.9,161.8,275.9L161.8,275.9z"/>
	<path id="path915" class="st32" d="M129.5,227.7c0,0,3.1-1.9,3.8-3.7c0.7-1.8,1.8-4.9,1.8-4.9s5.2,1.9,7.5,0.8c2.3-1.1,5-2.8,5-2.8
		l2.6-0.1c0,0,0.9,3.5-1,5.8c-1.9,2.3-6,8.8-8.3,8.2c-2.3-0.6-2.4-0.4-2.4-0.4l-2.3,4.7C136.2,235.2,131.9,241.3,129.5,227.7
		L129.5,227.7z"/>
	<path id="path917" class="st33" d="M120.5,227.5c0,0,0-2.3,1.1-3.1c1.1-0.8,4-1.3,5-3.5c1-2.1,0.8-2.3,0.9-3.9
		c0.1-1.5-0.7-9,1.5-11.2c2.1-2.3,2.8-3.3,5.9-3.7c3.1-0.4,6.1-1,7.4,0.8c1.3,1.8,1.3,3.3,1.3,3.3s4.3,2.2,5,4.3
		c0.7,2.1,2.1,6.4,2,8c-0.1,1.6-0.9,5.4-2.2,5.8c-1.3,0.5-2.1,0.9-2.1,0.9s2-4.6,1.7-6.4c-0.3-1.7-0.5-1.7-0.5-1.7s-3.5,3.2-6.7,4
		c-3.2,0.8-4.4,0.1-4.4,0.1s3.7-0.7,4.7-1.9c1-1.2,0.9-1,0.9-1s-1.9,0.8-4.4,0.5c-2.5-0.3-2.5-0.3-2.5-0.3s-1.2,5.7-2.9,7
		c-1.7,1.3-3.1,2.5-3.1,2.5L120.5,227.5z"/>
	<path id="path919" class="st33" d="M138.4,230.8c0,0,4.7,2.7,4.8,5.8c0.1,3.1,0.1,3.5,0.1,3.5s-0.5-1.5-0.7-2.5
		c-0.3-1-0.4,2.9-0.4,2.9s0.1,2.4-1.4,5.2c-1.5,2.7-1.5,2.7-1.5,2.7l-2.1-4l-0.9-8.9L138.4,230.8z"/>
	<path id="path921" class="st34" d="M138.2,229.8c0,0-1.7-0.7-2.6-2.2c-0.9-1.5-1.5-2.7-1.5-2.7s-1.1,4.2,0.9,6c2,1.8,2,1.8,2,1.8
		L138.2,229.8z"/>
	<path id="path923" sodipodi:nodetypes="cccc" class="st35" d="M113.7,247.6l-1.3,10.8l2.9-0.8L113.7,247.6z"/>
	<path id="path925" sodipodi:nodetypes="ccscc" class="st36" d="M88.6,286.5l4.9-13.7c0,0-1.2,10.6-0.5,15.4
		c0.7,4.8,2.5,10.4,2.5,10.4L88.6,286.5z"/>
</g>
</svg>
